<?xml version="1.0" standalone="no"?>
<!DOCTYPE svg PUBLIC "-//W3C//DTD SVG 20010904//EN"
 "http://www.w3.org/TR/2001/REC-SVG-20010904/DTD/svg10.dtd">
<svg version="1.0" xmlns="http://www.w3.org/2000/svg"
 width="626.000000pt" height="626.000000pt" viewBox="0 0 626.000000 626.000000"
 preserveAspectRatio="xMidYMid meet">

<g transform="translate(0.000000,626.000000) scale(0.100000,-0.100000)"
fill="#000000" stroke="none">
<path d="M2022 5003 c-45 -18 -386 -633 -367 -663 4 -7 22 -10 41 -8 31 4 33
2 27 -22 -8 -34 -6 -34 -49 -11 -36 20 -39 20 -46 4 -13 -34 -8 -80 11 -102
20 -23 74 -43 94 -35 22 8 79 105 205 349 69 132 142 267 163 300 41 65 66
120 49 110 -6 -4 -13 8 -17 25 -8 42 -68 71 -111 53z m-163 -390 c-94 -169
-98 -174 -96 -140 1 14 5 23 9 21 6 -4 19 19 118 199 23 43 44 76 47 73 3 -2
-32 -71 -78 -153z m-108 -247 c-21 -20 -22 -20 -15 -1 11 32 28 49 32 35 3 -7
-5 -22 -17 -34z m-61 -176 c0 -5 -4 -10 -10 -10 -5 0 -10 5 -10 10 0 6 5 10
10 10 6 0 10 -4 10 -10z"/>
<path d="M2398 4885 c-32 -54 -95 -141 -87 -120 2 6 21 43 42 84 21 40 36 75
34 77 -7 7 -118 -169 -189 -301 -113 -207 -179 -345 -163 -339 9 4 15 0 15
-10 0 -9 5 -16 11 -16 5 0 7 6 3 13 -6 9 -4 9 8 -1 8 -7 22 -10 30 -7 12 5 14
0 11 -19 -5 -24 -8 -25 -52 -19 -25 3 -49 10 -52 15 -9 13 -19 -29 -19 -79 0
-37 3 -43 21 -43 15 0 19 -5 15 -15 -3 -9 3 -19 15 -26 19 -10 19 -12 5 -28
-8 -9 -26 -42 -40 -72 -21 -48 -29 -57 -57 -63 -22 -4 -60 -34 -125 -98 -56
-54 -94 -85 -94 -75 0 9 -5 19 -10 22 -7 4 -9 -2 -5 -18 6 -22 -2 -32 -64 -81
-39 -31 -71 -59 -71 -62 0 -2 32 13 70 33 52 28 103 70 189 156 82 80 126 117
142 117 12 0 19 3 16 6 -4 4 3 19 14 35 11 15 29 49 40 74 13 30 26 45 39 45
17 0 33 26 29 46 -1 5 2 20 8 34 6 14 12 34 14 45 3 11 12 21 22 23 17 4 18 2
2 -30 l-16 -33 31 35 c17 19 63 98 102 175 39 76 91 173 115 215 53 88 133
245 133 259 0 14 -41 51 -56 51 -7 0 -51 -59 -98 -132 -47 -72 -86 -128 -86
-124 0 14 23 53 136 227 23 37 40 70 37 73 -16 16 -34 2 -65 -49z m44 -190
c-25 -46 -48 -82 -50 -80 -6 6 79 165 88 165 5 0 -13 -38 -38 -85z m-86 -63
c-18 -16 -18 -16 -6 6 6 13 14 21 18 18 3 -4 -2 -14 -12 -24z m-196 -312 c0
-5 -2 -10 -4 -10 -3 0 -8 5 -11 10 -3 6 -1 10 4 10 6 0 11 -4 11 -10z"/>
<path d="M2262 4868 c-16 -24 -60 -99 -97 -168 -107 -197 -200 -362 -298 -530
-81 -139 -143 -260 -133 -260 7 0 83 125 131 215 27 50 127 227 223 395 158
276 219 390 207 390 -2 0 -17 -19 -33 -42z"/>
<path d="M2655 4815 c-38 -39 -40 -40 -25 -1 16 42 5 30 -48 -51 -110 -174
-313 -567 -282 -548 12 7 11 -19 0 -55 -7 -23 -8 -22 -10 10 -1 34 -2 34 -11
10 -6 -14 -9 -51 -7 -83 2 -31 -1 -57 -6 -57 -5 0 -3 -7 4 -15 9 -11 16 -12
26 -4 8 6 26 8 45 4 l32 -7 -7 46 c-4 26 -14 62 -22 82 -13 30 -13 38 1 63 8
17 20 33 26 37 7 4 7 -1 -1 -16 -6 -12 -10 -24 -7 -26 6 -6 49 64 146 241 46
83 90 157 98 165 17 16 -57 -128 -139 -270 -72 -124 -88 -165 -86 -221 0 -27
4 -46 9 -44 14 9 20 -14 9 -35 -19 -35 -2 -22 29 24 17 24 77 133 134 242 57
110 115 217 129 239 42 66 122 225 113 225 -2 0 -16 -20 -31 -45 -26 -45 -42
-60 -29 -27 16 40 23 72 14 67 -11 -8 -11 -3 1 32 l10 28 -21 -27 c-26 -34
-56 -39 -38 -7 9 17 8 20 -2 14 -9 -6 -11 -2 -7 13 10 37 -11 36 -47 -3z m-80
-134 c-43 -69 -60 -83 -22 -18 13 23 30 53 36 65 7 13 15 21 18 19 3 -3 -12
-33 -32 -66z m-90 -231 c-9 -18 -19 -30 -21 -27 -3 3 2 19 11 37 9 18 19 30
21 27 3 -3 -2 -19 -11 -37z"/>
<path d="M3035 4811 c-3 -2 -5 -9 -5 -15 0 -6 5 -4 11 4 9 13 10 13 6 0 -2 -8
-9 -14 -15 -13 -16 4 -56 -58 -185 -292 -126 -226 -188 -372 -163 -381 8 -3
30 -1 50 4 34 10 35 9 25 -9 -5 -11 -9 -50 -7 -87 3 -60 5 -67 25 -70 15 -2
20 -8 17 -20 -12 -37 49 69 93 163 26 55 108 218 181 362 73 145 127 260 120
258 -8 -3 -25 3 -38 15 -13 11 -25 20 -26 20 -2 0 -20 -25 -40 -55 -20 -30
-39 -55 -41 -55 -5 0 47 95 75 137 13 21 12 23 -11 32 -25 10 -64 11 -72 2z
m-166 -356 c-13 -25 -30 -51 -38 -58 -8 -7 1 16 20 50 39 71 52 77 18 8z
m-119 -294 c0 -14 -18 -23 -30 -16 -6 4 -8 11 -5 16 8 12 35 12 35 0z m-40
-31 c0 -5 -5 -10 -11 -10 -5 0 -7 5 -4 10 3 6 8 10 11 10 2 0 4 -4 4 -10z"/>
<path d="M2914 4732 c-17 -26 -75 -130 -129 -232 -53 -102 -130 -246 -171
-320 -85 -156 -137 -270 -105 -230 51 64 450 814 439 825 -2 2 -18 -17 -34
-43z"/>
<path d="M3267 4703 c-94 -150 -282 -498 -312 -576 l-24 -65 34 2 c23 1 35 -3
35 -12 0 -7 6 -20 14 -28 8 -8 12 -23 9 -36 -5 -17 -3 -20 10 -15 18 7 22 -2
10 -19 -5 -5 2 2 15 16 12 14 57 93 99 175 42 83 104 200 138 260 106 187 158
298 100 212 -33 -48 -43 -48 -13 1 12 20 22 38 21 39 -2 2 0 10 4 18 8 23 -5
31 -29 16 -19 -12 -20 -11 -15 9 5 19 1 17 -24 -11 l-31 -34 21 37 c23 43 11
60 -21 31 -20 -16 -21 -17 -15 0 11 28 -1 19 -26 -20z m-52 -153 c-9 -16 -18
-30 -21 -30 -2 0 2 14 11 30 9 17 18 30 21 30 2 0 -2 -13 -11 -30z m-61 -110
c-21 -38 -40 -68 -42 -65 -4 4 67 135 75 135 2 0 -13 -31 -33 -70z m-64 -285
c0 -8 -4 -15 -10 -15 -5 0 -10 7 -10 15 0 8 5 15 10 15 6 0 10 -7 10 -15z"/>
<path d="M3518 4620 c-132 -202 -317 -552 -321 -605 -2 -28 0 -30 32 -30 37 0
49 15 115 135 13 25 32 54 41 65 9 11 5 0 -8 -25 -123 -229 -115 -210 -92
-210 12 0 14 -7 9 -26 l-7 -27 20 20 c11 11 23 27 26 34 4 11 6 11 6 1 1 -7
-4 -23 -10 -35 -10 -20 -10 -20 4 -7 8 8 64 112 125 230 60 118 139 272 176
342 59 114 65 130 54 153 -14 32 -25 32 -40 0 -6 -14 -15 -25 -20 -25 -12 0
-10 8 8 36 9 13 14 27 10 31 -3 3 -6 1 -6 -5 0 -7 -4 -12 -10 -12 -5 0 -10 7
-10 16 0 11 -6 15 -20 11 -10 -3 -21 0 -23 7 -2 6 -29 -27 -59 -74z m24 -172
c-7 -7 -12 -8 -12 -2 0 6 3 14 7 17 3 4 9 5 12 2 2 -3 -1 -11 -7 -17z m-82
-58 c-6 -12 -14 -19 -17 -17 -2 3 1 15 7 27 6 12 14 19 17 17 2 -3 -1 -15 -7
-27z"/>
<path d="M4025 4630 c-4 -6 -10 -8 -15 -5 -5 3 -14 -4 -20 -15 -6 -12 -18 -19
-25 -16 -20 7 -57 -57 -212 -361 -137 -270 -151 -312 -110 -334 38 -22 65 16
180 254 41 86 78 157 81 157 3 0 -5 -24 -18 -52 -13 -29 -49 -107 -79 -173
-30 -66 -66 -144 -82 -174 -21 -42 -26 -64 -22 -94 6 -42 -6 -86 -26 -100 -8
-6 -7 -7 3 -4 8 2 27 21 41 43 46 68 379 768 379 797 0 20 -5 27 -18 27 -23 0
-46 -24 -64 -70 -8 -19 -23 -42 -33 -50 -11 -9 -2 16 24 68 22 45 41 88 41 97
0 17 -16 20 -25 5z m-65 -48 c0 -5 -7 -17 -15 -28 -14 -18 -14 -17 -4 9 12 27
19 34 19 19z m30 -180 c0 -5 -7 -17 -15 -28 -14 -18 -14 -17 -4 9 12 27 19 34
19 19z m-90 -47 c-7 -9 -15 -13 -18 -10 -3 2 1 11 8 20 7 9 15 13 18 10 3 -2
-1 -11 -8 -20z m25 -85 c-9 -18 -19 -30 -21 -27 -3 2 3 18 13 35 23 40 29 33
8 -8z"/>
<path d="M3806 4567 c-14 -23 -59 -114 -101 -202 -42 -88 -165 -339 -272 -558
-108 -219 -193 -400 -190 -403 6 -6 542 1071 578 1159 23 58 18 60 -15 4z"/>
<path d="M4259 4548 c-41 -23 -91 -103 -227 -368 -81 -156 -147 -323 -136
-342 4 -5 13 -3 24 7 12 11 20 13 25 5 8 -14 35 6 35 26 0 7 5 16 12 20 11 7
9 -7 -7 -51 l-8 -20 17 20 c17 19 17 19 11 -10 -3 -16 -12 -34 -19 -40 -7 -5
-15 -17 -19 -25 -5 -13 -6 -13 -6 1 -1 18 -32 49 -48 49 -6 0 -13 -10 -17 -22
-5 -18 -8 -20 -15 -9 -7 10 -11 1 -16 -33 -4 -26 -5 -50 -1 -53 3 -4 7 2 7 13
1 10 4 3 8 -16 5 -31 11 -36 54 -48 54 -15 77 -6 77 32 0 12 4 26 9 31 4 6 27
57 51 115 23 58 101 226 172 373 118 242 129 270 115 284 -14 14 -19 8 -56
-58 -23 -41 -46 -91 -53 -111 -6 -21 -15 -38 -20 -38 -12 0 -105 -197 -120
-254 -7 -27 -19 -46 -29 -49 -17 -5 -17 -2 -3 37 9 22 65 140 125 262 79 160
109 230 109 257 0 42 -2 43 -51 15z m-39 -66 c0 -5 -7 -17 -15 -28 -14 -18
-14 -17 -4 9 12 27 19 34 19 19z m-174 -576 c-8 -20 -20 -36 -25 -36 -6 0 -1
21 11 46 26 52 37 44 14 -10z m-111 -226 c3 -5 1 -10 -4 -10 -6 0 -11 5 -11
10 0 6 2 10 4 10 3 0 8 -4 11 -10z m50 -10 c-3 -5 -13 -6 -21 -3 -12 4 -13 8
-3 14 15 9 32 2 24 -11z"/>
<path d="M4715 4470 c-4 -6 -10 -8 -15 -5 -5 3 -12 0 -15 -6 -4 -5 -13 -8 -21
-5 -22 8 -63 -62 -189 -320 -121 -247 -148 -308 -159 -359 l-6 -30 15 28 c20
35 26 34 19 -3 -6 -28 -5 -30 24 -30 25 0 30 -3 25 -17 -4 -11 -3 -14 6 -9 9
6 10 0 5 -21 -7 -26 -6 -27 10 -14 22 18 34 48 92 223 48 145 85 241 91 235 2
-2 -4 -21 -12 -42 -18 -41 -14 -55 9 -36 8 7 -7 -36 -33 -96 -27 -59 -56 -130
-65 -158 -10 -27 -26 -69 -37 -91 -26 -55 -46 -167 -30 -172 6 -2 9 -9 5 -15
-3 -7 2 -3 11 8 23 28 59 100 95 189 16 41 74 175 129 298 123 277 153 355
139 364 -5 4 -14 1 -18 -6 -5 -9 -9 -9 -14 -1 -5 8 -14 4 -27 -11 l-19 -23 10
28 c13 37 6 34 -20 -9 -29 -45 -37 -37 -12 13 24 49 30 131 7 93z m-189 -716
c-4 -9 -9 -15 -11 -12 -3 3 -3 13 1 22 4 9 9 15 11 12 3 -3 3 -13 -1 -22z"/>
<path d="M4462 4303 c-38 -76 -84 -172 -102 -213 -18 -41 -98 -208 -177 -370
-165 -334 -196 -401 -190 -407 7 -7 69 112 137 262 35 77 126 264 203 415 135
266 213 438 204 446 -2 3 -36 -57 -75 -133z"/>
<path d="M4963 4374 c-27 -21 -32 -22 -27 -7 15 45 -88 -141 -178 -322 -96
-196 -152 -342 -141 -371 7 -19 30 -18 42 4 10 16 10 16 11 0 0 -10 5 -18 11
-18 6 0 9 -7 5 -15 -12 -31 5 -13 29 33 28 50 28 48 0 -38 -23 -72 -30 -78
-44 -39 -8 23 -14 29 -23 22 -17 -13 -48 -13 -49 1 -2 24 -17 -42 -18 -80 l-1
-40 41 -3 c32 -1 45 3 60 20 20 24 26 10 8 -22 -7 -14 -16 -18 -31 -13 -14 4
-18 2 -14 -5 4 -6 18 -11 31 -11 27 0 48 31 60 90 4 19 17 51 30 70 13 19 35
60 49 90 237 532 260 590 247 603 -17 17 -35 -7 -76 -100 -22 -49 -49 -102
-62 -118 -28 -39 -115 -222 -139 -295 -18 -54 -33 -84 -40 -77 -9 9 77 204
184 414 107 211 128 267 88 234 -11 -10 -15 -9 -18 3 -2 13 -9 11 -35 -10z
m-23 -175 c-7 -11 -14 -19 -16 -16 -7 7 7 37 17 37 6 0 5 -9 -1 -21z m-62 -29
c-7 -10 -14 -18 -15 -16 -6 6 9 36 18 36 5 0 4 -9 -3 -20z m66 -105 c-4 -8
-10 -15 -15 -15 -4 0 -6 7 -3 15 4 8 10 15 15 15 4 0 6 -7 3 -15z m-233 -208
c-8 -8 -11 -7 -11 4 0 20 13 34 18 19 3 -7 -1 -17 -7 -23z m40 -4 c-8 -15 -10
-15 -11 -2 0 17 10 32 18 25 2 -3 -1 -13 -7 -23z"/>
<path d="M5320 4355 c0 -21 -30 -31 -40 -14 -7 11 -12 10 -28 -5 -15 -13 -21
-14 -25 -4 -2 7 -54 -88 -115 -212 -117 -240 -170 -361 -196 -450 l-16 -55 21
25 c19 23 20 23 14 3 -9 -32 15 -40 36 -12 17 22 19 23 19 4 1 -13 9 -4 26 28
43 83 40 52 -7 -68 -15 -38 -28 -62 -28 -53 -1 10 -7 15 -14 12 -8 -3 -19 7
-26 23 -12 27 -13 27 -27 8 -8 -10 -14 -24 -14 -29 0 -6 -4 -5 -9 3 -7 10 -12
2 -18 -30 -14 -65 14 -133 39 -98 8 11 9 11 5 -3 -4 -11 3 -20 23 -28 39 -16
55 -9 69 31 l11 33 -29 -28 c-19 -18 -34 -25 -43 -20 -9 6 -6 10 12 14 23 6
25 10 22 50 -3 36 -1 42 13 37 8 -4 18 -1 20 6 22 65 98 263 110 287 30 58 33
29 4 -35 -37 -82 -82 -215 -75 -223 8 -7 64 118 131 293 32 83 86 212 120 288
59 132 70 177 40 177 -6 0 -36 -52 -65 -115 -29 -63 -57 -115 -62 -115 -13 0
-10 8 46 125 54 109 74 165 62 165 -3 0 -6 -7 -6 -15z m-50 -255 c-6 -11 -12
-20 -14 -20 -2 0 -2 9 1 20 3 11 9 20 15 20 5 0 4 -9 -2 -20z m-122 -97 c-21
-49 -48 -93 -48 -80 0 10 59 127 65 127 2 0 -6 -21 -17 -47z m-8 -99 c-34 -88
-46 -111 -55 -103 -3 4 9 37 26 75 17 38 35 80 40 93 5 13 12 22 15 19 2 -3
-9 -41 -26 -84z"/>
<path d="M5478 4174 c-25 -55 -108 -245 -183 -424 -75 -179 -168 -397 -207
-485 -81 -184 -121 -285 -114 -292 7 -8 42 65 126 266 42 102 146 344 230 536
163 375 202 473 197 488 -1 5 -24 -35 -49 -89z"/>
<path d="M5695 4221 c-8 -16 -22 -36 -30 -45 -9 -8 -38 -59 -65 -113 -27 -54
-49 -95 -50 -91 0 4 23 60 51 124 28 64 48 118 46 120 -3 3 -33 -62 -67 -143
-35 -81 -96 -220 -135 -308 -79 -174 -95 -218 -92 -253 3 -31 17 -29 36 5 9
15 18 30 19 33 7 10 43 -44 38 -57 -3 -7 -3 -13 -1 -13 9 0 63 115 108 230 52
132 86 209 87 196 0 -5 -21 -63 -46 -130 -26 -67 -47 -140 -48 -163 -1 -36
-16 -77 -16 -43 0 7 -13 -7 -30 -31 -32 -47 -55 -136 -46 -174 7 -28 -12 -46
-41 -39 -14 4 -19 11 -16 25 6 22 19 25 27 7 3 -7 4 9 2 36 -5 58 -24 77 -72
73 -30 -2 -34 -6 -43 -44 -15 -58 -15 -60 17 -71 l27 -10 -25 -2 c-21 -2 -18
-4 15 -15 22 -8 55 -14 72 -14 31 -1 35 4 67 67 18 37 54 121 79 187 25 66 66
170 92 230 90 213 155 378 152 382 -2 2 -12 -15 -22 -37 -14 -31 -21 -37 -31
-29 -10 8 -19 -1 -38 -38 -35 -67 -32 -52 9 46 22 51 30 79 20 71 -13 -11 -15
-8 -15 24 0 43 -14 46 -35 7z m-41 -172 c-20 -51 -38 -107 -38 -124 -2 -32
-85 -239 -94 -231 -6 6 53 193 93 296 50 128 66 163 71 157 3 -3 -11 -47 -32
-98z m-118 -126 c-8 -15 -15 -25 -16 -21 0 12 23 58 27 54 3 -2 -2 -17 -11
-33z m-20 -141 c-20 -20 -22 -1 -4 31 11 20 12 21 16 3 2 -10 -3 -26 -12 -34z
m-141 -432 c3 -5 1 -10 -4 -10 -6 0 -11 5 -11 10 0 6 2 10 4 10 3 0 8 -4 11
-10z"/>
<path d="M1359 4108 c-75 -114 -155 -270 -114 -223 50 58 196 315 179 315 -2
0 -32 -42 -65 -92z"/>
<path d="M1583 4098 c-79 -121 -201 -373 -132 -273 71 105 199 345 183 345 -2
0 -26 -33 -51 -72z"/>
<path d="M2661 4105 c-1 -5 -6 -30 -11 -55 -12 -61 -4 -93 22 -84 10 3 25 0
33 -6 24 -20 32 -3 27 52 -6 65 -19 95 -35 79 -16 -16 -25 -14 -30 7 -3 9 -5
13 -6 7z"/>
<path d="M2907 4001 c-10 -46 -9 -103 2 -120 7 -11 12 -10 27 8 10 11 26 21
36 21 15 0 17 7 12 48 -4 26 -13 54 -21 62 -13 13 -16 13 -28 -3 -13 -18 -13
-18 -17 0 -3 12 -6 6 -11 -16z"/>
<path d="M2297 3993 c-14 -13 -7 -25 8 -13 8 7 24 10 35 7 11 -3 18 -1 14 4
-6 10 -48 12 -57 2z"/>
<path d="M2241 3963 c-10 -26 -10 -27 4 -9 8 11 15 23 15 28 0 15 -7 8 -19
-19z"/>
<path d="M2991 3985 c1 -19 18 -51 18 -35 0 8 -4 22 -9 30 -5 8 -9 11 -9 5z"/>
<path d="M3176 3932 c-10 -61 -7 -82 10 -82 10 0 14 -6 11 -14 -12 -30 77 -35
93 -5 14 26 7 35 -10 14 -20 -24 -26 -18 -22 25 6 62 -4 92 -31 88 -12 -1 -27
1 -33 5 -7 4 -14 -7 -18 -31z"/>
<path d="M2113 3931 c-41 -26 -305 -334 -268 -313 26 14 114 107 203 212 65
79 89 99 132 113 8 3 4 6 -10 6 -14 1 -39 -8 -57 -18z"/>
<path d="M2300 3941 c-20 -6 -9 -10 49 -19 57 -8 82 -18 112 -42 47 -38 51
-26 7 23 -29 31 -41 36 -88 40 -30 3 -66 2 -80 -2z"/>
<path d="M2998 3898 c-24 -25 -24 -28 -8 -28 11 0 24 9 30 21 18 33 7 36 -22
7z"/>
<path d="M2726 3895 c4 -8 11 -15 16 -15 6 0 5 6 -2 15 -7 8 -14 15 -16 15 -2
0 -1 -7 2 -15z"/>
<path d="M1611 3888 c-35 -19 -77 -101 -110 -214 -15 -54 -42 -137 -60 -184
-30 -83 -31 -84 -6 -55 31 37 58 106 85 214 23 93 57 166 89 195 15 14 41 20
97 24 41 3 72 8 67 12 -16 16 -137 21 -162 8z"/>
<path d="M3581 3842 c-12 -55 -11 -104 4 -114 5 -4 20 -8 33 -8 17 0 24 7 29
31 6 30 7 31 20 14 11 -17 13 -13 13 31 0 49 -19 102 -21 59 0 -11 -3 -14 -6
-7 -2 6 -11 12 -18 12 -8 0 -20 7 -28 15 -13 13 -16 9 -26 -33z"/>
<path d="M2681 3842 c-20 -29 -61 -117 -61 -130 1 -13 32 33 61 92 33 64 33
84 0 38z"/>
<path d="M2922 3823 c-24 -35 -116 -193 -124 -213 -3 -8 -18 -42 -32 -75 -25
-58 -25 -59 -4 -33 42 50 199 348 184 348 -3 0 -13 -12 -24 -27z"/>
<path d="M2555 3810 c10 -11 20 -20 23 -20 3 0 -3 9 -13 20 -10 11 -20 20 -23
20 -3 0 3 -9 13 -20z"/>
<path d="M1210 3813 c0 -13 52 -94 57 -89 3 3 -7 26 -21 51 -25 42 -36 54 -36
38z"/>
<path d="M2530 3803 c0 -6 8 -17 18 -24 16 -13 16 -13 2 6 -8 11 -16 22 -17
24 -2 2 -3 0 -3 -6z"/>
<path d="M3141 3762 c-54 -85 -180 -342 -167 -342 2 0 22 30 44 68 62 104 168
322 158 322 -2 0 -18 -21 -35 -48z"/>
<path d="M1422 3729 c23 -41 48 -68 48 -52 0 10 -59 93 -67 93 -2 0 6 -18 19
-41z"/>
<path d="M1000 3757 c13 -13 341 -98 395 -102 l60 -5 -55 20 c-69 26 -414 100
-400 87z"/>
<path d="M2326 3744 c-74 -20 -69 -27 13 -20 61 5 84 3 132 -14 64 -23 89 -18
110 22 l12 21 -28 -21 c-36 -28 -58 -28 -103 3 -40 28 -63 29 -136 9z"/>
<path d="M2185 3667 c-77 -91 -95 -118 -94 -146 l0 -26 10 24 c5 14 32 48 58
76 48 50 85 109 79 124 -2 4 -25 -19 -53 -52z"/>
<path d="M4315 3710 c-4 -11 -10 -18 -14 -15 -5 2 -11 -12 -15 -33 -8 -52 -7
-74 3 -68 5 3 12 -2 15 -11 4 -9 2 -19 -4 -23 -7 -4 1 -12 18 -19 l29 -12 -22
-57 c-42 -106 -38 -121 9 -40 49 82 55 105 31 114 -25 10 -17 27 10 22 23 -5
25 -2 25 33 0 21 -7 44 -15 53 -8 8 -15 21 -15 29 0 8 -11 22 -24 31 -23 15
-25 14 -31 -4z"/>
<path d="M1175 3659 c105 -26 206 -48 225 -48 33 0 31 2 -26 24 -52 20 -343
77 -377 74 -7 -1 74 -23 178 -50z"/>
<path d="M3603 3652 c-40 -60 -159 -320 -150 -329 7 -6 66 102 130 238 80 170
84 187 20 91z"/>
<path d="M2758 3693 c12 -2 30 -2 40 0 9 3 -1 5 -23 4 -22 0 -30 -2 -17 -4z"/>
<path d="M2590 3676 c-25 -6 -54 -18 -65 -25 -32 -20 59 -5 109 19 48 21 25
25 -44 6z"/>
<path d="M2730 3672 c0 -10 26 -34 50 -47 8 -4 2 6 -14 23 -32 34 -36 37 -36
24z"/>
<path d="M2390 3631 c-59 -19 -226 -117 -275 -163 -21 -20 75 26 170 81 55 32
121 66 145 74 40 14 42 16 15 16 -16 -1 -41 -4 -55 -8z"/>
<path d="M3831 3572 c-50 -78 -165 -350 -125 -297 42 56 175 345 160 345 -2 0
-18 -22 -35 -48z"/>
<path d="M812 3544 c13 -12 461 -128 533 -137 l40 -5 -43 19 c-67 31 -281 84
-501 123 -19 3 -32 4 -29 0z"/>
<path d="M2650 3512 c-83 -30 -144 -64 -212 -115 -24 -18 -73 -49 -108 -68
-108 -56 -197 -159 -225 -259 -4 -14 16 9 45 50 72 103 84 115 170 172 41 28
89 63 105 79 17 15 85 52 152 82 179 81 217 111 73 59z"/>
<path d="M4377 3458 c-9 -18 -19 -46 -22 -63 -7 -28 -6 -29 7 -10 20 28 48
105 38 105 -4 0 -15 -15 -23 -32z"/>
<path d="M4570 3473 c-26 -10 -51 -37 -72 -76 -28 -56 -16 -56 27 0 20 26 47
54 61 61 13 7 24 15 24 17 0 6 -21 5 -40 -2z"/>
<path d="M2740 3436 c0 -12 29 -76 35 -76 3 0 -2 17 -10 37 -16 38 -25 52 -25
39z"/>
<path d="M4700 3427 c0 -4 9 -26 20 -48 12 -22 18 -45 14 -51 -4 -7 -3 -8 4
-4 20 12 13 49 -13 81 -13 17 -24 26 -25 22z"/>
<path d="M4845 3367 c-8 -20 -15 -41 -15 -47 0 -6 -11 -33 -25 -60 -14 -27
-25 -52 -25 -55 0 -4 23 19 51 49 41 45 57 56 83 57 30 0 30 1 8 12 -17 8 -31
8 -53 0 -16 -6 -29 -10 -29 -8 0 1 7 19 16 40 8 20 13 40 10 43 -3 3 -13 -11
-21 -31z"/>
<path d="M4367 3364 c-53 -35 -39 -43 18 -10 25 15 50 24 57 20 7 -4 8 -3 4 4
-11 19 -38 14 -79 -14z"/>
<path d="M2520 3363 c19 -8 114 -33 210 -55 96 -22 353 -84 570 -138 217 -54
415 -101 440 -104 92 -11 -92 42 -361 104 -145 33 -385 92 -534 129 -148 38
-290 71 -315 74 l-45 6 35 -16z"/>
<path d="M2970 3360 c0 -23 29 -85 36 -78 4 5 -26 98 -32 98 -2 0 -4 -9 -4
-20z"/>
<path d="M1364 3312 c-17 -20 -65 -82 -106 -137 -112 -149 -52 -110 -598 -386
-196 -100 -221 -119 -110 -87 19 6 132 61 250 123 118 61 250 128 292 148 86
42 134 89 223 223 46 68 92 154 83 154 -2 0 -17 -17 -34 -38z"/>
<path d="M2540 3311 c25 -10 99 -31 165 -46 66 -15 321 -76 568 -137 246 -60
453 -108 459 -106 7 3 -188 55 -432 116 -245 62 -512 130 -595 152 -82 21
-163 39 -180 39 -28 0 -27 -1 15 -18z"/>
<path d="M4277 3309 c-32 -18 -149 -280 -133 -296 7 -7 57 97 91 187 16 41 38
85 49 98 21 24 20 27 -7 11z"/>
<path d="M3225 3273 c20 -46 41 -70 30 -33 -8 25 -34 70 -41 70 -2 0 3 -17 11
-37z"/>
<path d="M4436 3268 c-24 -63 -95 -339 -86 -333 18 11 63 146 84 254 13 64 22
117 21 119 -2 2 -10 -16 -19 -40z"/>
<path d="M4671 3293 c-21 -41 -81 -318 -80 -371 l1 -57 18 81 c10 44 26 105
35 135 15 50 46 229 39 229 -2 0 -7 -8 -13 -17z"/>
<path d="M561 3296 c3 -3 84 -26 180 -50 96 -24 208 -53 249 -64 41 -12 100
-23 130 -26 l55 -6 -61 25 c-84 33 -571 140 -553 121z"/>
<path d="M4987 3267 c3 -14 -11 -49 -35 -93 -22 -38 -45 -90 -52 -114 -6 -25
-15 -61 -20 -79 -13 -51 -4 -50 19 0 96 209 119 287 92 303 -4 3 -6 -5 -4 -17z"/>
<path d="M3885 3270 c-17 -7 -15 -9 13 -9 50 -1 95 -51 142 -156 22 -49 40
-81 40 -70 0 30 -37 154 -55 181 -29 45 -99 72 -140 54z"/>
<path d="M3441 3250 c0 -14 8 -41 19 -60 25 -45 25 -19 0 40 -15 36 -19 40
-19 20z"/>
<path d="M5339 3204 c-83 -183 -126 -294 -113 -294 14 0 160 347 150 358 -3 2
-20 -26 -37 -64z"/>
<path d="M3881 3224 c20 -23 39 -78 39 -111 0 -14 4 -21 10 -18 27 17 -3 116
-42 136 -22 11 -22 11 -7 -7z"/>
<path d="M3691 3189 c9 -40 26 -79 33 -79 5 0 -9 59 -23 93 -16 40 -20 33 -10
-14z"/>
<path d="M3862 3175 c0 -22 3 -49 8 -60 7 -17 9 -15 8 10 0 17 -4 44 -8 60 -7
29 -8 28 -8 -10z"/>
<path d="M4744 3161 c-46 -45 -139 -250 -121 -267 2 -2 32 55 67 128 34 73 69
141 78 151 24 27 9 20 -24 -12z"/>
<path d="M2222 3170 c22 -14 165 -50 192 -49 31 1 -101 45 -159 53 -37 5 -46
4 -33 -4z"/>
<path d="M2580 3106 c-30 -7 -82 -27 -115 -44 -64 -34 -45 -34 55 0 85 29 163
34 197 13 l28 -17 -25 25 c-32 32 -71 39 -140 23z"/>
<path d="M2650 3044 c-41 -18 -50 -30 -48 -64 1 -23 1 -24 5 -3 3 14 22 33 49
49 62 36 59 46 -6 18z"/>
<path d="M3860 3013 c-6 -26 -16 -104 -20 -173 -7 -99 -14 -138 -34 -187 -26
-63 -31 -107 -16 -153 7 -21 8 -17 9 21 1 30 13 71 33 115 31 66 32 74 38 243
4 97 6 177 5 179 -1 1 -8 -19 -15 -45z"/>
<path d="M5090 3046 c0 -2 11 -6 25 -8 13 -3 22 -1 19 3 -5 9 -44 13 -44 5z"/>
<path d="M2110 3022 c0 -16 22 -29 60 -35 l35 -6 -35 16 c-19 8 -41 20 -47 25
-9 7 -13 7 -13 0z"/>
<path d="M2835 3010 c22 -11 92 -31 155 -45 63 -15 238 -58 389 -96 150 -39
275 -68 277 -66 2 2 -110 34 -248 70 -139 37 -316 84 -393 106 -77 21 -158 41
-180 44 l-40 5 40 -18z"/>
<path d="M5069 3013 c12 -23 29 -38 37 -31 2 3 -8 15 -22 29 -25 23 -26 23
-15 2z"/>
<path d="M2303 3009 c-24 -4 -51 -13 -60 -19 -24 -15 58 -5 119 15 39 12 40
13 13 13 -16 0 -49 -4 -72 -9z"/>
<path d="M5016 2989 c-8 -19 -19 -59 -25 -89 -10 -49 -21 -65 -91 -139 -44
-47 -80 -89 -80 -94 0 -13 146 110 170 143 19 26 54 197 44 209 -2 2 -10 -11
-18 -30z"/>
<path d="M2688 2975 c-54 -29 -72 -49 -28 -32 27 10 93 56 80 56 -3 0 -26 -11
-52 -24z"/>
<path d="M5161 2924 c-1 -59 -48 -163 -129 -288 -29 -43 -52 -84 -52 -90 1
-31 143 164 180 247 20 44 25 126 10 162 -6 15 -9 7 -9 -31z"/>
<path d="M4063 2907 c-22 -29 -53 -77 -68 -107 -29 -57 -87 -220 -79 -220 3 0
32 56 64 125 32 68 75 152 95 186 20 34 34 63 32 65 -1 2 -21 -20 -44 -49z"/>
<path d="M2114 2935 c-18 -13 -18 -14 4 -8 12 3 25 9 28 14 8 14 -10 11 -32
-6z"/>
<path d="M4942 2900 c0 -14 2 -19 5 -12 2 6 2 18 0 25 -3 6 -5 1 -5 -13z"/>
<path d="M2562 2890 c-15 -25 -56 -45 -107 -54 -73 -13 -139 -39 -197 -77 -84
-57 -79 -63 12 -18 45 22 116 47 158 55 89 18 116 33 138 75 17 35 15 49 -4
19z"/>
<path d="M4817 2836 c-28 -57 -47 -125 -46 -166 l0 -25 10 23 c5 14 13 20 21
16 8 -5 9 -2 5 10 -4 10 5 56 19 102 15 47 24 87 22 89 -3 3 -17 -19 -31 -49z"/>
<path d="M5197 2867 c-12 -32 -8 -69 14 -104 25 -40 35 -38 18 3 -7 16 -15 49
-18 74 -5 33 -8 40 -14 27z"/>
<path d="M3678 2793 c7 -3 16 -2 19 1 4 3 -2 6 -13 5 -11 0 -14 -3 -6 -6z"/>
<path d="M4858 2783 c6 -2 18 -2 25 0 6 3 1 5 -13 5 -14 0 -19 -2 -12 -5z"/>
<path d="M2548 2759 c24 -11 182 -56 350 -99 169 -44 431 -113 582 -155 151
-41 282 -75 290 -74 29 1 -36 20 -315 95 -154 42 -397 109 -539 150 -315 91
-450 121 -368 83z"/>
<path d="M5157 2701 c13 -6 46 -13 75 -16 42 -5 49 -4 35 5 -10 6 -44 14 -75
16 -43 3 -52 2 -35 -5z"/>
<path d="M2137 2674 c-8 -8 -177 -51 -277 -70 -174 -32 -412 -94 -458 -119
-26 -14 -38 -23 -27 -21 11 3 84 21 163 41 78 20 218 51 310 69 92 19 192 43
223 55 56 21 103 50 83 51 -6 0 -13 -3 -17 -6z"/>
<path d="M5053 2450 c46 -25 198 -66 470 -126 110 -24 210 -46 221 -49 18 -5
19 -4 4 5 -9 5 -97 31 -195 56 -98 25 -236 63 -308 84 -71 20 -152 40 -180 44
l-50 6 38 -20z"/>
<path d="M1200 2434 c-83 -18 -401 -129 -460 -161 l-45 -24 40 7 c22 3 101 29
175 56 74 28 198 70 275 94 137 42 145 56 15 28z"/>
<path d="M4913 2358 c-130 -335 -135 -346 -200 -425 -35 -43 -75 -101 -88
-130 -29 -60 -32 -78 -8 -43 9 14 47 59 83 100 92 104 100 117 163 275 65 163
90 244 85 281 -2 20 -10 7 -35 -58z"/>
<path d="M3811 2395 c-2 -44 21 -149 43 -199 13 -30 41 -76 63 -103 26 -33 54
-91 87 -181 26 -73 50 -132 51 -130 7 6 -44 203 -63 248 -11 25 -38 68 -61 95
-33 39 -50 76 -80 170 -22 66 -39 111 -40 100z"/>
<path d="M5040 2354 c83 -39 521 -146 536 -131 2 2 -42 16 -98 32 -57 15 -166
46 -243 70 -77 23 -165 45 -195 49 l-55 6 55 -26z"/>
<path d="M3986 1705 c-15 -76 -38 -324 -31 -333 2 -2 13 37 24 86 28 121 47
293 34 316 -8 14 -14 -1 -27 -69z"/>
<path d="M4592 1643 c-20 -102 -23 -160 -15 -270 5 -90 8 -102 15 -73 10 39
24 400 16 400 -3 0 -10 -26 -16 -57z"/>
</g>
</svg>
