<svg width="31" height="27" viewBox="0 0 31 27" fill="none" xmlns="http://www.w3.org/2000/svg">
<ellipse cx="15.5" cy="13.5" rx="15.5" ry="13.5" fill="#4D3D3D"/>
<path d="M20.168 11.5566C20.5195 11.9082 20.7865 12.3053 20.9688 12.748C21.151 13.1908 21.2422 13.6562 21.2422 14.1445C21.2422 14.6393 21.151 15.1081 20.9688 15.5508C20.7865 15.9935 20.5195 16.3906 20.168 16.7422C20.0768 16.8529 19.9401 16.9082 19.7578 16.9082C19.6862 16.9082 19.6146 16.8952 19.543 16.8691C19.4779 16.8431 19.4225 16.8008 19.377 16.7422C19.2663 16.638 19.2109 16.5078 19.2109 16.3516C19.2109 16.1888 19.2663 16.0553 19.377 15.9512C19.6178 15.7103 19.8001 15.4336 19.9238 15.1211C20.054 14.8086 20.1191 14.4831 20.1191 14.1445C20.1191 13.8125 20.054 13.4902 19.9238 13.1777C19.8001 12.8652 19.6178 12.5885 19.377 12.3477C19.2663 12.2435 19.2109 12.1133 19.2109 11.957C19.2109 11.7943 19.2663 11.6608 19.377 11.5566C19.4941 11.4395 19.6309 11.3809 19.7871 11.3809C19.9303 11.3809 20.0573 11.4395 20.168 11.5566ZM17.4336 7.9043C17.5833 7.7806 17.7266 7.71875 17.8633 7.71875C17.9805 7.71875 18.0749 7.77083 18.1465 7.875C18.2181 7.97917 18.2539 8.12565 18.2539 8.31445V20.0137C18.2539 20.2025 18.2148 20.349 18.1367 20.4531C18.0651 20.5573 17.9674 20.6094 17.8438 20.6094C17.707 20.6094 17.5638 20.5475 17.4141 20.4238L15.6172 19.0176C15.3893 18.8418 15.168 18.6693 14.9531 18.5C14.7383 18.3307 14.543 18.181 14.3672 18.0508C14.1979 17.9141 14.0026 17.7578 13.7812 17.582H9.99219C9.82943 17.582 9.74805 17.5039 9.74805 17.3477V10.9512C9.74805 10.8796 9.77083 10.8242 9.81641 10.7852C9.86198 10.7396 9.92057 10.7168 9.99219 10.7168H13.8301L13.9961 10.5898C14.1003 10.5052 14.237 10.3978 14.4062 10.2676C14.5755 10.1374 14.7676 9.98763 14.9824 9.81836C15.1973 9.64909 15.4186 9.47656 15.6465 9.30078C16.1738 8.89062 16.7695 8.42513 17.4336 7.9043Z" fill="white"/>
</svg>
